<?xml version="1.0" encoding="UTF-8" standalone="no"?>
<svg
   xmlns:dc="http://purl.org/dc/elements/1.1/"
   xmlns:cc="http://creativecommons.org/ns#"
   xmlns:rdf="http://www.w3.org/1999/02/22-rdf-syntax-ns#"
   xmlns:svg="http://www.w3.org/2000/svg"
   xmlns="http://www.w3.org/2000/svg"
   xmlns:sodipodi="http://sodipodi.sourceforge.net/DTD/sodipodi-0.dtd"
   xmlns:inkscape="http://www.inkscape.org/namespaces/inkscape"
   width="396.96155pt"
   height="312.00415pt"
   viewBox="0 0 396.96155 312.00415"
   version="1.1"
   id="svg293"
   sodipodi:docname="illustrProof1.svg"
   inkscape:version="0.92.4 (f8dce91, 2019-08-02)">
  <metadata
     id="metadata297">
    <rdf:RDF>
      <cc:Work
         rdf:about="">
        <dc:format>image/svg+xml</dc:format>
        <dc:type
           rdf:resource="http://purl.org/dc/dcmitype/StillImage" />
        <dc:title></dc:title>
      </cc:Work>
    </rdf:RDF>
  </metadata>
  <sodipodi:namedview
     pagecolor="#ffffff"
     bordercolor="#666666"
     borderopacity="1"
     objecttolerance="10"
     gridtolerance="10"
     guidetolerance="10"
     inkscape:pageopacity="0"
     inkscape:pageshadow="2"
     inkscape:window-width="1853"
     inkscape:window-height="1025"
     id="namedview295"
     showgrid="false"
     fit-margin-top="0"
     fit-margin-left="0"
     fit-margin-right="0"
     fit-margin-bottom="0"
     inkscape:zoom="1.1891487"
     inkscape:cx="281.95713"
     inkscape:cy="223.11348"
     inkscape:window-x="67"
     inkscape:window-y="27"
     inkscape:window-maximized="1"
     inkscape:current-layer="svg293" />
  <defs
     id="defs146">
    <clipPath
       id="clip1">
      <path
         d="M 172,32 H 417 V 284 H 172 Z m 0,0"
         id="path2"
         inkscape:connector-curvature="0" />
    </clipPath>
    <clipPath
       id="clip2">
      <path
         d="m 0,227.26562 333.41797,192.5 130.5,-226.03125 L 130.5,1.234375 Z m 0,0"
         id="path5"
         inkscape:connector-curvature="0" />
    </clipPath>
    <clipPath
       id="clip3">
      <path
         d="M 167,28 H 422 V 289 H 167 Z m 0,0"
         id="path8"
         inkscape:connector-curvature="0" />
    </clipPath>
    <clipPath
       id="clip4">
      <path
         d="m 0,227.26562 333.41797,192.5 130.5,-226.03125 L 130.5,1.234375 Z m 0,0"
         id="path11"
         inkscape:connector-curvature="0" />
    </clipPath>
    <clipPath
       id="clip5">
      <path
         d="M 165,32 H 290 V 317 H 165 Z m 0,0"
         id="path14"
         inkscape:connector-curvature="0" />
    </clipPath>
    <clipPath
       id="clip6">
      <path
         d="m 0,227.26562 333.41797,192.5 130.5,-226.03125 L 130.5,1.234375 Z m 0,0"
         id="path17"
         inkscape:connector-curvature="0" />
    </clipPath>
    <clipPath
       id="clip7">
      <path
         d="M 160,28 H 295 V 322 H 160 Z m 0,0"
         id="path20"
         inkscape:connector-curvature="0" />
    </clipPath>
    <clipPath
       id="clip8">
      <path
         d="m 0,227.26562 333.41797,192.5 130.5,-226.03125 L 130.5,1.234375 Z m 0,0"
         id="path23"
         inkscape:connector-curvature="0" />
    </clipPath>
    <clipPath
       id="clip9">
      <path
         d="m 293,256 h 86 v 95 h -86 z m 0,0"
         id="path26"
         inkscape:connector-curvature="0" />
    </clipPath>
    <clipPath
       id="clip10">
      <path
         d="m 0,227.26562 333.41797,192.5 130.5,-226.03125 L 130.5,1.234375 Z m 0,0"
         id="path29"
         inkscape:connector-curvature="0" />
    </clipPath>
    <clipPath
       id="clip11">
      <path
         d="m 14,182 h 295 v 90 H 14 Z m 0,0"
         id="path32"
         inkscape:connector-curvature="0" />
    </clipPath>
    <clipPath
       id="clip12">
      <path
         d="m 0,227.26562 333.41797,192.5 130.5,-226.03125 L 130.5,1.234375 Z m 0,0"
         id="path35"
         inkscape:connector-curvature="0" />
    </clipPath>
    <clipPath
       id="clip13">
      <path
         d="M 56,119 H 396 V 322 H 56 Z m 0,0"
         id="path38"
         inkscape:connector-curvature="0" />
    </clipPath>
    <clipPath
       id="clip14">
      <path
         d="m 0,227.26562 333.41797,192.5 130.5,-226.03125 L 130.5,1.234375 Z m 0,0"
         id="path41"
         inkscape:connector-curvature="0" />
    </clipPath>
    <clipPath
       id="clip15">
      <path
         d="m 348,195 h 74 v 120 h -74 z m 0,0"
         id="path44"
         inkscape:connector-curvature="0" />
    </clipPath>
    <clipPath
       id="clip16">
      <path
         d="m 0,227.26562 333.41797,192.5 130.5,-226.03125 L 130.5,1.234375 Z m 0,0"
         id="path47"
         inkscape:connector-curvature="0" />
    </clipPath>
    <clipPath
       id="clip17">
      <path
         d="M 77,28 H 178 V 195 H 77 Z m 0,0"
         id="path50"
         inkscape:connector-curvature="0" />
    </clipPath>
    <clipPath
       id="clip18">
      <path
         d="m 0,227.26562 333.41797,192.5 130.5,-226.03125 L 130.5,1.234375 Z m 0,0"
         id="path53"
         inkscape:connector-curvature="0" />
    </clipPath>
    <clipPath
       id="clip19">
      <path
         d="m 163,187 h 18 v 24 h -18 z m 0,0"
         id="path56"
         inkscape:connector-curvature="0" />
    </clipPath>
    <clipPath
       id="clip20">
      <path
         d="m 0,227.26562 333.41797,192.5 130.5,-226.03125 L 130.5,1.234375 Z m 0,0"
         id="path59"
         inkscape:connector-curvature="0" />
    </clipPath>
    <clipPath
       id="clip21">
      <path
         d="m 347,281 h 23 v 18 h -23 z m 0,0"
         id="path62"
         inkscape:connector-curvature="0" />
    </clipPath>
    <clipPath
       id="clip22">
      <path
         d="m 0,227.26562 333.41797,192.5 130.5,-226.03125 L 130.5,1.234375 Z m 0,0"
         id="path65"
         inkscape:connector-curvature="0" />
    </clipPath>
    <clipPath
       id="clip23">
      <path
         d="m 104,138 h 18 v 22 h -18 z m 0,0"
         id="path68"
         inkscape:connector-curvature="0" />
    </clipPath>
    <clipPath
       id="clip24">
      <path
         d="m 0,227.26562 333.41797,192.5 130.5,-226.03125 L 130.5,1.234375 Z m 0,0"
         id="path71"
         inkscape:connector-curvature="0" />
    </clipPath>
    <clipPath
       id="clip25">
      <path
         d="m 289,252 h 76 v 71 h -76 z m 0,0"
         id="path74"
         inkscape:connector-curvature="0" />
    </clipPath>
    <clipPath
       id="clip26">
      <path
         d="m 0,227.26562 333.41797,192.5 130.5,-226.03125 L 130.5,1.234375 Z m 0,0"
         id="path77"
         inkscape:connector-curvature="0" />
    </clipPath>
    <clipPath
       id="clip27">
      <path
         d="m 69,177 h 244 v 99 H 69 Z m 0,0"
         id="path80"
         inkscape:connector-curvature="0" />
    </clipPath>
    <clipPath
       id="clip28">
      <path
         d="m 0,227.26562 333.41797,192.5 130.5,-226.03125 L 130.5,1.234375 Z m 0,0"
         id="path83"
         inkscape:connector-curvature="0" />
    </clipPath>
    <clipPath
       id="clip29">
      <path
         d="M 176,93 H 330 V 248 H 176 Z m 0,0"
         id="path86"
         inkscape:connector-curvature="0" />
    </clipPath>
    <clipPath
       id="clip30">
      <path
         d="m 0,227.26562 333.41797,192.5 130.5,-226.03125 L 130.5,1.234375 Z m 0,0"
         id="path89"
         inkscape:connector-curvature="0" />
    </clipPath>
    <clipPath
       id="clip31">
      <path
         d="M 171,89 H 335 V 253 H 171 Z m 0,0"
         id="path92"
         inkscape:connector-curvature="0" />
    </clipPath>
    <clipPath
       id="clip32">
      <path
         d="m 0,227.26562 333.41797,192.5 130.5,-226.03125 L 130.5,1.234375 Z m 0,0"
         id="path95"
         inkscape:connector-curvature="0" />
    </clipPath>
    <clipPath
       id="clip33">
      <path
         d="m 164,180 h 121 v 80 H 164 Z m 0,0"
         id="path98"
         inkscape:connector-curvature="0" />
    </clipPath>
    <clipPath
       id="clip34">
      <path
         d="m 0,227.26562 333.41797,192.5 130.5,-226.03125 L 130.5,1.234375 Z m 0,0"
         id="path101"
         inkscape:connector-curvature="0" />
    </clipPath>
    <clipPath
       id="clip35">
      <path
         d="m 298,261 h 6 v 6 h -6 z m 0,0"
         id="path104"
         inkscape:connector-curvature="0" />
    </clipPath>
    <clipPath
       id="clip36">
      <path
         d="m 0,227.26562 333.41797,192.5 130.5,-226.03125 L 130.5,1.234375 Z m 0,0"
         id="path107"
         inkscape:connector-curvature="0" />
    </clipPath>
    <clipPath
       id="clip37">
      <path
         d="m 350,307 h 6 v 6 h -6 z m 0,0"
         id="path110"
         inkscape:connector-curvature="0" />
    </clipPath>
    <clipPath
       id="clip38">
      <path
         d="m 0,227.26562 333.41797,192.5 130.5,-226.03125 L 130.5,1.234375 Z m 0,0"
         id="path113"
         inkscape:connector-curvature="0" />
    </clipPath>
    <clipPath
       id="clip39">
      <path
         d="m 79,187 h 6 v 6 h -6 z m 0,0"
         id="path116"
         inkscape:connector-curvature="0" />
    </clipPath>
    <clipPath
       id="clip40">
      <path
         d="m 0,227.26562 333.41797,192.5 130.5,-226.03125 L 130.5,1.234375 Z m 0,0"
         id="path119"
         inkscape:connector-curvature="0" />
    </clipPath>
    <clipPath
       id="clip41">
      <path
         d="m 270,245 h 6 v 6 h -6 z m 0,0"
         id="path122"
         inkscape:connector-curvature="0" />
    </clipPath>
    <clipPath
       id="clip42">
      <path
         d="m 0,227.26562 333.41797,192.5 130.5,-226.03125 L 130.5,1.234375 Z m 0,0"
         id="path125"
         inkscape:connector-curvature="0" />
    </clipPath>
    <clipPath
       id="clip43">
      <path
         d="m 173,189 h 6 v 6 h -6 z m 0,0"
         id="path128"
         inkscape:connector-curvature="0" />
    </clipPath>
    <clipPath
       id="clip44">
      <path
         d="m 0,227.26562 333.41797,192.5 130.5,-226.03125 L 130.5,1.234375 Z m 0,0"
         id="path131"
         inkscape:connector-curvature="0" />
    </clipPath>
    <clipPath
       id="clip45">
      <path
         d="m 260,230 h 22 v 18 h -22 z m 0,0"
         id="path134"
         inkscape:connector-curvature="0" />
    </clipPath>
    <clipPath
       id="clip46">
      <path
         d="m 0,227.26562 333.41797,192.5 130.5,-226.03125 L 130.5,1.234375 Z m 0,0"
         id="path137"
         inkscape:connector-curvature="0" />
    </clipPath>
    <clipPath
       id="clip47">
      <path
         d="m 176,179 h 18 v 23 h -18 z m 0,0"
         id="path140"
         inkscape:connector-curvature="0" />
    </clipPath>
    <clipPath
       id="clip48">
      <path
         d="m 0,227.26562 333.41797,192.5 130.5,-226.03125 L 130.5,1.234375 Z m 0,0"
         id="path143"
         inkscape:connector-curvature="0" />
    </clipPath>
  </defs>
  <g
     id="surface9"
     transform="translate(-20.532155,-31.945895)">
    <g
       clip-path="url(#clip1)"
       id="g152"
       style="clip-rule:nonzero">
      <g
         clip-path="url(#clip2)"
         id="g150"
         style="clip-rule:nonzero">
        <path
           style="fill:#a8c5f0;fill-opacity:1;fill-rule:nonzero;stroke:#a8c5f0;stroke-width:0.03;stroke-linecap:square;stroke-linejoin:miter;stroke-miterlimit:3.25;stroke-opacity:1"
           d="M 289.57031,283.64062 416.59766,199.77344 172.48047,32.628906 Z m 0,0"
           id="path148"
           inkscape:connector-curvature="0" />
      </g>
    </g>
    <g
       clip-path="url(#clip3)"
       id="g158"
       style="clip-rule:nonzero">
      <g
         clip-path="url(#clip4)"
         id="g156"
         style="clip-rule:nonzero">
        <path
           style="fill:none;stroke:#859cbd;stroke-width:1;stroke-linecap:square;stroke-linejoin:miter;stroke-miterlimit:3.25;stroke-opacity:1"
           d="M 289.57031,283.64062 416.59766,199.77344 172.48047,32.628906 Z m 0,0"
           id="path154"
           inkscape:connector-curvature="0" />
      </g>
    </g>
    <g
       clip-path="url(#clip5)"
       id="g164"
       style="clip-rule:nonzero">
      <g
         clip-path="url(#clip6)"
         id="g162"
         style="clip-rule:nonzero">
        <path
           style="fill:#a8c5f0;fill-opacity:1;fill-rule:nonzero;stroke:#a8c5f0;stroke-width:0.03;stroke-linecap:square;stroke-linejoin:miter;stroke-miterlimit:3.25;stroke-opacity:1"
           d="M 289.57031,283.64062 172.48047,32.628906 165.58594,316.86328 Z m 0,0"
           id="path160"
           inkscape:connector-curvature="0" />
      </g>
    </g>
    <g
       clip-path="url(#clip7)"
       id="g170"
       style="clip-rule:nonzero">
      <g
         clip-path="url(#clip8)"
         id="g168"
         style="clip-rule:nonzero">
        <path
           style="fill:none;stroke:#859cbd;stroke-width:1;stroke-linecap:square;stroke-linejoin:miter;stroke-miterlimit:3.25;stroke-opacity:1"
           d="M 289.57031,283.64062 172.48047,32.628906 165.58594,316.86328 Z m 0,0"
           id="path166"
           inkscape:connector-curvature="0" />
      </g>
    </g>
    <g
       clip-path="url(#clip9)"
       id="g176"
       style="clip-rule:nonzero">
      <g
         clip-path="url(#clip10)"
         id="g174"
         style="clip-rule:nonzero">
        <path
           style="fill:none;stroke:#5c7fb3;stroke-width:1.60000002;stroke-linecap:square;stroke-linejoin:miter;stroke-miterlimit:3.25;stroke-opacity:1"
           d="m 371.14844,342.91016 -0.0625,-0.15625 -0.0586,-0.15235 -0.12109,-0.30859 -0.24609,-0.61328 -0.5,-1.22657 -1.03907,-2.44531 -2.4375,-5.26562 -2.49609,-4.86328 -2.64844,-4.71094 -3.09375,-5.03516 -3.08594,-4.62109 -3.5625,-4.91406 -3.70703,-4.72266 -3.63672,-4.30078 -4.13671,-4.54688 -4.03125,-4.125 -4.10547,-3.92578 -0.0703,-0.0625 -0.0703,-0.0664 -0.14453,-0.13282 -0.28125,-0.25781 -0.57031,-0.52344 -1.15235,-1.03125 -2.33203,-2.03906 -0.0664,-0.0625 -0.0703,-0.0586 -0.41015,-0.35157 -0.55078,-0.46875 -1.11328,-0.92968 -0.0664,-0.0586 -0.0703,-0.0547 -0.14063,-0.11719 -0.28125,-0.23047 -0.55859,-0.46094 -1.12891,-0.91015 -0.0742,-0.0625 -0.0781,-0.0625 -0.15235,-0.1211 -0.30859,-0.24609 -0.61719,-0.48828 -1.23828,-0.96875 -0.0781,-0.0586 -0.0781,-0.0625 -0.15625,-0.11718 -0.3125,-0.24219 -0.6289,-0.47656 -1.25782,-0.94922 -0.0781,-0.0547 -0.23438,-0.17578 -0.30859,-0.23047 -0.625,-0.45703 -1.25391,-0.91016 -0.0781,-0.0547 -0.0781,-0.0586 -0.16015,-0.10937 -0.31641,-0.22657 -0.63281,-0.44922 -1.26953,-0.88671 -0.29688,-0.20313 -0.30078,-0.20703 -0.59375,-0.40625 -0.0781,-0.0508 -0.22266,-0.15235 -0.30078,-0.20312 -0.60156,-0.40234 -0.14844,-0.10157 -0.15235,-0.0976 -0.30078,-0.20313 -0.60547,-0.39844 -1.21484,-0.78906 -0.082,-0.0508 -0.082,-0.0547 -0.16406,-0.10547 -0.9961,-0.63281 -0.082,-0.0508 -0.082,-0.0547 -0.16797,-0.10156 -0.33203,-0.21094 -0.66797,-0.41406 -0.082,-0.0508 -0.082,-0.0547 -0.16797,-0.10156 -0.33594,-0.20703 -0.082,-0.0508 -0.0859,-0.0508 -0.5039,-0.30469 -0.082,-0.0508 -0.0859,-0.0547 -0.16797,-0.10156 -0.082,-0.0508 -0.0859,-0.0508 -0.16797,-0.0976 -0.082,-0.0508 -0.0859,-0.0508 -0.5039,-0.30469 -0.082,-0.0469 -0.3125,-0.1875 -0.082,-0.0469 -0.15625,-0.0899 -0.15625,-0.0937 -0.082,-0.0469 -0.23437,-0.14063 -0.082,-0.0469 -0.0781,-0.043 -0.15625,-0.0937 -0.082,-0.0469 -0.0781,-0.0469 -0.0781,-0.043 -0.082,-0.0469 -0.15625,-0.0937 -0.0312,-0.0156"
           id="path172"
           inkscape:connector-curvature="0" />
      </g>
    </g>
    <g
       clip-path="url(#clip11)"
       id="g182"
       style="clip-rule:nonzero">
      <g
         clip-path="url(#clip12)"
         id="g180"
         style="clip-rule:nonzero">
        <path
           style="fill:none;stroke:#5c7fb3;stroke-width:1.60000002;stroke-linecap:square;stroke-linejoin:miter;stroke-miterlimit:3.25;stroke-opacity:1"
           d="m 300.75391,263.89453 -0.2461,-0.14062 -0.16015,-0.0899 -0.15625,-0.0937 -0.16016,-0.0898 -0.16016,-0.0937 -0.15625,-0.0899 -0.16015,-0.0898 -0.16016,-0.0937 -0.15625,-0.0898 -0.16016,-0.0899 -0.16015,-0.0937 -0.31641,-0.17968 -0.16015,-0.0937 -0.16016,-0.0899 -0.31641,-0.18359 -0.32031,-0.17969 -0.32031,-0.18359 -0.15625,-0.0899 -0.48047,-0.26953 -0.16016,-0.0937 -0.15625,-0.0898 -0.64062,-0.35938 -0.31641,-0.18359 -0.64062,-0.35938 -0.34375,-0.19531 -0.34766,-0.19531 -0.69141,-0.38672 -0.17578,-0.0977 -0.17187,-0.0976 -0.34766,-0.19531 -0.6914,-0.38672 -0.17579,-0.0977 -0.17187,-0.0977 -0.34766,-0.1914 -0.69531,-0.38672 -1.38672,-0.76953 -0.17578,-0.0937 -0.17187,-0.0977 -1.04297,-0.57422 -1.39453,-0.76172 -0.17188,-0.0977 -0.17578,-0.0937 -0.34766,-0.19141 -0.69531,-0.3789 -1.39844,-0.75391 -0.16797,-0.0937 -0.17187,-0.0937 -0.34375,-0.18359 -0.68359,-0.3711 -1.375,-0.73437 -2.7461,-1.46094 -0.17187,-0.0898 -0.17188,-0.0937 -0.34375,-0.17969 -0.6875,-0.36328 -1.375,-0.72266 -2.7539,-1.43359 -0.16016,-0.082 -0.16406,-0.0859 -0.32032,-0.16406 -0.64453,-0.33204 -1.28515,-0.66406 -2.57422,-1.3125 -0.16406,-0.082 -0.48047,-0.24609 -1.9336,-0.97266 -2.58203,-1.28906 -0.17578,-0.0859 -0.17578,-0.0898 -0.34766,-0.17188 -0.69922,-0.34765 -1.40234,-0.6875 -2.80078,-1.3711 -5.60938,-2.6914 -0.16015,-0.0781 -0.16406,-0.0781 -0.32813,-0.15235 -0.65625,-0.30859 -1.30859,-0.61719 -2.6211,-1.22266 -5.23828,-2.40234 -0.16015,-0.0742 -0.16016,-0.0703 -0.32031,-0.14844 -0.64453,-0.28906 -1.28125,-0.57813 -2.57032,-1.14062 -5.1289,-2.25 -11.11328,-4.67969 -10.32813,-4.1289 -11.12109,-4.19532 -10.83203,-3.83593 -10,-3.31641 -10.71875,-3.30469 -9.8711,-2.80469 -9.52734,-2.48046 -10.15625,-2.39063 -9.28906,-1.94141 -9.84375,-1.78515 -8.96485,-1.36328 -8.5625,-1.05469 -9.015622,-0.81641 -8.144532,-0.45703 -8.515625,-0.16797 -8.027343,0.17578 -7.175782,0.46094 -7.433594,0.83203 -6.59375,1.07813 -6.132812,1.34375 -6.269531,1.76953 -5.476563,1.94922 -0.09375,0.0352 -0.08984,0.0391 -0.1875,0.0703 -0.363281,0.14844 -0.730469,0.30078 -1.433593,0.61328 -0.08984,0.043 -0.08594,0.0391 -0.179688,0.0781 -0.351562,0.15625 -0.699219,0.32421 -0.171875,0.0781 -0.175782,0.082 -0.34375,0.16406 -0.08594,0.043 -0.08594,0.0391 -0.171876,0.0859 -0.08594,0.0391 -0.08203,0.043 -0.08594,0.0391 -0.08594,0.043"
           id="path178"
           inkscape:connector-curvature="0" />
      </g>
    </g>
    <g
       clip-path="url(#clip13)"
       id="g188"
       style="clip-rule:nonzero">
      <g
         clip-path="url(#clip14)"
         id="g186"
         style="clip-rule:nonzero">
        <path
           style="fill:none;stroke:#5c7fb3;stroke-width:1.60000002;stroke-linecap:square;stroke-linejoin:miter;stroke-miterlimit:3.25;stroke-opacity:1"
           d="m 387.76172,314.12891 -6.35938,-3.67188 -6.89843,-3.98047 -6.44141,-3.71875 -6.3125,-3.64453 -6.84766,-3.95703 -6.39453,-3.6875 -6.92578,-4 -6.80078,-3.92578 -6.34375,-3.66406 -6.87891,-3.96875 -6.41797,-3.70704 -6.29687,-3.63671 -6.83203,-3.94141 -6.3711,-3.67969 -6.91015,-3.99219 -6.78125,-3.91406 -6.32422,-3.65234 -6.85938,-3.96094 -6.40625,-3.69531 -6.9375,-4.00781 -6.8125,-3.92969 -6.35156,-3.67188 -6.89062,-3.97656 -6.4336,-3.71484 -6.30859,-3.64063 -6.83984,-3.94922 -6.38282,-3.6875 -6.92187,-3.99609 -6.79297,-3.92188 -6.33594,-3.65625 -6.87109,-3.96875 -6.41406,-3.70312 -6.28907,-3.62891 -6.82422,-3.9414 -6.36718,-3.67578 -6.89844,-3.98438 -6.44531,-3.71875 -6.32032,-3.64844 -6.85156,-3.95703 -6.39453,-3.6914 -6.93359,-4.00391 -6.80469,-3.92578 -6.34766,-3.66797 -6.882809,-3.97266 -6.425781,-3.71093 -6.300781,-3.63672 -6.832031,-3.94532 -6.378907,-3.68359 -7.117187,-4.10937"
           id="path184"
           inkscape:connector-curvature="0" />
      </g>
    </g>
    <g
       clip-path="url(#clip15)"
       id="g194"
       style="clip-rule:nonzero">
      <g
         clip-path="url(#clip16)"
         id="g192"
         style="clip-rule:nonzero">
        <path
           style="fill:none;stroke:#5c7fb3;stroke-width:1;stroke-linecap:square;stroke-linejoin:miter;stroke-miterlimit:3.25;stroke-dasharray:4, 4;stroke-opacity:1"
           d="m 416.59766,199.77344 -63.69141,110.3125"
           id="path190"
           inkscape:connector-curvature="0" />
      </g>
    </g>
    <g
       clip-path="url(#clip17)"
       id="g200"
       style="clip-rule:nonzero">
      <g
         clip-path="url(#clip18)"
         id="g198"
         style="clip-rule:nonzero">
        <path
           style="fill:none;stroke:#5c7fb3;stroke-width:1;stroke-linecap:square;stroke-linejoin:miter;stroke-miterlimit:3.25;stroke-dasharray:4, 4;stroke-opacity:1"
           d="M 172.48047,32.628906 81.71875,189.83594"
           id="path196"
           inkscape:connector-curvature="0" />
      </g>
    </g>
    <g
       clip-path="url(#clip19)"
       id="g206"
       style="clip-rule:nonzero">
      <g
         clip-path="url(#clip20)"
         id="g204"
         style="clip-rule:nonzero">
        <path
           style="fill:none;stroke:#5c7fb3;stroke-width:1;stroke-linecap:square;stroke-linejoin:miter;stroke-miterlimit:3.25;stroke-dasharray:4, 4;stroke-opacity:1"
           d="m 176.14844,191.95703 -7.86328,13.61719"
           id="path202"
           inkscape:connector-curvature="0" />
      </g>
    </g>
    <g
       clip-path="url(#clip21)"
       id="g212"
       style="clip-rule:nonzero">
      <g
         clip-path="url(#clip22)"
         id="g210"
         style="clip-rule:nonzero">
        <path
           style="fill:none;stroke:#5c7fb3;stroke-width:1;stroke-linecap:square;stroke-linejoin:miter;stroke-miterlimit:3.25;stroke-opacity:1"
           d="m 364.40625,290.16797 -7.85938,-4.53906 -4.53906,7.85937"
           id="path208"
           inkscape:connector-curvature="0" />
      </g>
    </g>
    <g
       clip-path="url(#clip23)"
       id="g218"
       style="clip-rule:nonzero">
      <g
         clip-path="url(#clip24)"
         id="g216"
         style="clip-rule:nonzero">
        <path
           style="fill:none;stroke:#5c7fb3;stroke-width:1;stroke-linecap:square;stroke-linejoin:miter;stroke-miterlimit:3.25;stroke-opacity:1"
           d="m 108.94531,142.67578 7.85938,4.53906 -4.53516,7.85938"
           id="path214"
           inkscape:connector-curvature="0" />
      </g>
    </g>
    <g
       clip-path="url(#clip25)"
       id="g224"
       style="clip-rule:nonzero">
      <g
         clip-path="url(#clip26)"
         id="g222"
         style="clip-rule:nonzero">
        <path
           style="fill:none;stroke:#e19c23;stroke-width:2.5999999;stroke-linecap:square;stroke-linejoin:miter;stroke-miterlimit:3.25;stroke-opacity:1"
           d="m 352.90625,310.08594 -0.0352,-0.0469 -0.0351,-0.0508 -0.0703,-0.0937 -0.14062,-0.19141 -0.28516,-0.38281 -0.57031,-0.76172 -1.16016,-1.51562 -2.58984,-3.25391 -2.5,-2.98828 -2.53125,-2.87891 -2.83594,-3.07031 -2.72265,-2.80859 -3.03125,-2.98047 -3.0625,-2.85938 -2.92578,-2.60546 -3.2461,-2.75782 -3.09765,-2.50781 -0.0508,-0.0352 -0.0469,-0.0391 -0.0937,-0.0742 -0.19531,-0.15234 -0.38282,-0.30078 -0.77343,-0.60156 -1.55469,-1.1875 -0.0547,-0.0391 -0.0508,-0.0391 -0.10937,-0.082 -0.21094,-0.16016 -0.42578,-0.3164 -0.85547,-0.63282 -0.0508,-0.0391 -0.16407,-0.11719 -0.21093,-0.16015 -0.4336,-0.3125 -0.85937,-0.6211 -0.0508,-0.0351 -0.0508,-0.0391 -0.10157,-0.0703 -0.20312,-0.14453 -0.40235,-0.28906 -0.8125,-0.57031 -0.20312,-0.14063 -0.20703,-0.14453 -0.40625,-0.28125 -0.82031,-0.5625 -0.10938,-0.0781 -0.11328,-0.0742 -0.22266,-0.15235 -0.44531,-0.30078 -0.89453,-0.60156 -0.0547,-0.0391 -0.0586,-0.0352 -0.11328,-0.0742 -0.22266,-0.14844 -0.44922,-0.29687 -0.90234,-0.58984 -0.0586,-0.0352 -0.0547,-0.0352 -0.10938,-0.0742 -0.22265,-0.14453 -0.44532,-0.28515 -0.0586,-0.0352 -0.16406,-0.10547 -0.22657,-0.14453 -0.44531,-0.28125 -0.0547,-0.0352 -0.0586,-0.0351 -0.10937,-0.0703 -0.22657,-0.14063 -0.44922,-0.28125 -0.0547,-0.0352 -0.0586,-0.0351 -0.10937,-0.0703 -0.22656,-0.14063 -0.44922,-0.27734 -0.0547,-0.0312 -0.0508,-0.0312 -0.10547,-0.0664 -0.21094,-0.12891 -0.0547,-0.0312 -0.0508,-0.0312 -0.10547,-0.0664 -0.21093,-0.12891 -0.0547,-0.0312 -0.0508,-0.0312 -0.10547,-0.0664 -0.21094,-0.125 -0.42578,-0.25391 -0.0508,-0.0352 -0.0547,-0.0312 -0.3164,-0.1875 -0.0547,-0.0312 -0.0508,-0.0312 -0.10938,-0.0664 -0.21094,-0.125 -0.0547,-0.0312 -0.0508,-0.0312 -0.10547,-0.0625 -0.10938,-0.0625 -0.10547,-0.0625 -0.0508,-0.0312 -0.0547,-0.0312 -0.10546,-0.0625 -0.10938,-0.0625 -0.10547,-0.0625 -0.0586,-0.0352 -0.0586,-0.0312 -0.0547,-0.0352 -0.0586,-0.0351 -0.0586,-0.0312 -0.0586,-0.0352 -0.0586,-0.0312 -0.0547,-0.0351 -0.0586,-0.0352 -0.0586,-0.0312 -0.0586,-0.0352 -0.0586,-0.0312 -0.0586,-0.0351"
           id="path220"
           inkscape:connector-curvature="0" />
      </g>
    </g>
    <g
       clip-path="url(#clip27)"
       id="g230"
       style="clip-rule:nonzero">
      <g
         clip-path="url(#clip28)"
         id="g228"
         style="clip-rule:nonzero">
        <path
           style="fill:none;stroke:#e19c23;stroke-width:2.5999999;stroke-linecap:square;stroke-linejoin:miter;stroke-miterlimit:3.25;stroke-opacity:1"
           d="m 300.80469,263.92578 -0.1211,-0.0703 -0.23437,-0.13281 -0.11328,-0.0664 -0.11719,-0.0664 -0.11719,-0.0703 -0.11328,-0.0664 -0.35156,-0.19921 -0.11328,-0.0664 -0.35157,-0.19922 -0.11328,-0.0664 -0.35156,-0.19921 -0.11328,-0.0703 -0.35156,-0.19922 -0.11328,-0.0664 -0.35157,-0.19922 -0.11328,-0.0664 -0.23437,-0.13281 -0.46485,-0.26172 -0.23437,-0.13281 -0.23047,-0.13281 -0.58594,-0.33203 -0.11328,-0.0664 -0.23437,-0.12891 -0.57422,-0.32812 -0.10938,-0.0586 -0.21875,-0.125 -0.43359,-0.24609 -0.875,-0.48828 -0.10547,-0.0625 -0.10938,-0.0586 -0.21875,-0.125 -0.4375,-0.24219 -0.87109,-0.48828 -0.10937,-0.0586 -0.10938,-0.0625 -1.53125,-0.84765 -1.74609,-0.96875 -0.1211,-0.0625 -0.11718,-0.0664 -0.23829,-0.12891 -0.47265,-0.26171 -0.94922,-0.51954 -1.90234,-1.03515 -0.1211,-0.0625 -0.11719,-0.0664 -0.23828,-0.1289 -0.47656,-0.25391 -0.94922,-0.51563 -1.90625,-1.01953 -0.9375,-0.5 -0.93359,-0.49609 -1.875,-0.99219 -0.23438,-0.125 -0.23437,-0.12109 -0.47266,-0.2461 -0.9375,-0.49218 -1.8789,-0.97657 -0.10938,-0.0586 -0.10937,-0.0547 -0.65625,-0.33984 -0.87891,-0.45313 -1.75391,-0.90234 -3.51172,-1.78516 -0.12109,-0.0586 -0.11719,-0.0586 -0.71484,-0.36328 -0.95313,-0.47657 -1.91015,-0.94922 -3.81641,-1.88281 -0.11328,-0.0547 -0.10937,-0.0547 -0.22657,-0.10938 -0.44531,-0.21875 -0.89062,-0.43359 -1.78516,-0.85938 -3.57031,-1.70703 -7.00391,-3.27734 -7.59766,-3.4375 -7.08203,-3.10547 -7.66797,-3.24219 -7.5039,-3.0625 -6.97656,-2.73828 -7.53125,-2.84766 -6.9961,-2.53515 -6.8164,-2.3711 -7.34766,-2.4414 -6.80078,-2.15235 -7.3086,-2.19531 -6.75781,-1.91797 -6.55859,-1.75781 -7.03125,-1.76172 -6.48047,-1.51172 -6.92969,-1.49218 -6.69922,-1.3125 -6.15234,-1.08594 -6.55859,-1.03125 -6.01172,-0.82422 -5.785159,-0.67188 -6.152343,-0.58203 -5.617188,-0.40234 -0.09766,-0.004 -0.09766,-0.008 -0.195313,-0.0117 -0.386719,-0.0195 -0.769531,-0.043 -1.535156,-0.0781 -0.09766,-0.004 -0.09375,-0.004 -0.191406,-0.0117 -0.382812,-0.0156 -0.761719,-0.0312 -0.09766,-0.004 -0.09375,-0.004 -0.191407,-0.008 -0.378906,-0.0156 -0.1875,-0.008 -0.191406,-0.004 -0.375,-0.0156"
           id="path226"
           inkscape:connector-curvature="0" />
      </g>
    </g>
    <g
       clip-path="url(#clip29)"
       id="g236"
       style="clip-rule:nonzero">
      <g
         clip-path="url(#clip30)"
         id="g234"
         style="clip-rule:nonzero">
        <path
           style="fill:#8fb030;fill-opacity:0.5;fill-rule:nonzero;stroke:none"
           d="M 272.84375,247.78125 329.57031,149.52734 232.875,93.699219 176.14844,191.95703 Z m 0,0"
           id="path232"
           inkscape:connector-curvature="0" />
      </g>
    </g>
    <g
       clip-path="url(#clip31)"
       id="g242"
       style="clip-rule:nonzero">
      <g
         clip-path="url(#clip32)"
         id="g240"
         style="clip-rule:nonzero">
        <path
           style="fill:none;stroke:#8fb030;stroke-width:1;stroke-linecap:square;stroke-linejoin:miter;stroke-miterlimit:3.25;stroke-opacity:1"
           d="M 272.84375,247.78125 329.57031,149.52734 232.875,93.699219 176.14844,191.95703 Z m 0,0"
           id="path238"
           inkscape:connector-curvature="0" />
      </g>
    </g>
    <g
       clip-path="url(#clip33)"
       id="g248"
       style="clip-rule:nonzero">
      <g
         clip-path="url(#clip34)"
         id="g246"
         style="clip-rule:nonzero">
        <path
           style="fill:none;stroke:#8fb030;stroke-width:2.5999999;stroke-linecap:square;stroke-linejoin:miter;stroke-miterlimit:3.25;stroke-opacity:1"
           d="M 272.84375,247.78125 176.14844,191.95703"
           id="path244"
           inkscape:connector-curvature="0" />
      </g>
    </g>
    <g
       clip-path="url(#clip35)"
       id="g254"
       style="clip-rule:nonzero">
      <g
         clip-path="url(#clip36)"
         id="g252"
         style="clip-rule:nonzero">
        <path
           style="fill:#5c7fb3;fill-opacity:1;fill-rule:evenodd;stroke:none"
           d="m 303.60156,264 c 0,-0.69141 -0.27734,-1.35156 -0.76172,-1.83984 -0.48828,-0.48438 -1.14843,-0.76172 -1.83984,-0.76172 -0.69141,0 -1.35156,0.27734 -1.83984,0.76172 -0.48438,0.48828 -0.76172,1.14843 -0.76172,1.83984 0,0.69141 0.27734,1.35156 0.76172,1.83984 0.48828,0.48438 1.14843,0.76172 1.83984,0.76172 0.69141,0 1.35156,-0.27734 1.83984,-0.76172 0.48438,-0.48828 0.76172,-1.14843 0.76172,-1.83984 z m 0,0"
           id="path250"
           inkscape:connector-curvature="0" />
      </g>
    </g>
    <g
       clip-path="url(#clip37)"
       id="g260"
       style="clip-rule:nonzero">
      <g
         clip-path="url(#clip38)"
         id="g258"
         style="clip-rule:nonzero">
        <path
           style="fill:#e19c23;fill-opacity:1;fill-rule:evenodd;stroke:none"
           d="m 355.60156,310 c 0,-0.69141 -0.27734,-1.35156 -0.76172,-1.83984 -0.48828,-0.48438 -1.14843,-0.76172 -1.83984,-0.76172 -0.69141,0 -1.35156,0.27734 -1.83984,0.76172 -0.48438,0.48828 -0.76172,1.14843 -0.76172,1.83984 0,0.69141 0.27734,1.35156 0.76172,1.83984 0.48828,0.48438 1.14843,0.76172 1.83984,0.76172 0.69141,0 1.35156,-0.27734 1.83984,-0.76172 0.48438,-0.48828 0.76172,-1.14843 0.76172,-1.83984 z m 0,0"
           id="path256"
           inkscape:connector-curvature="0" />
      </g>
    </g>
    <g
       clip-path="url(#clip39)"
       id="g266"
       style="clip-rule:nonzero">
      <g
         clip-path="url(#clip40)"
         id="g264"
         style="clip-rule:nonzero">
        <path
           style="fill:#e19c23;fill-opacity:1;fill-rule:evenodd;stroke:none"
           d="m 84.601562,190 c 0,-0.69141 -0.277343,-1.35156 -0.761718,-1.83984 -0.488282,-0.48438 -1.148438,-0.76172 -1.839844,-0.76172 -0.691406,0 -1.351562,0.27734 -1.839844,0.76172 -0.484375,0.48828 -0.761718,1.14843 -0.761718,1.83984 0,0.69141 0.277343,1.35156 0.761718,1.83984 0.488282,0.48438 1.148438,0.76172 1.839844,0.76172 0.691406,0 1.351562,-0.27734 1.839844,-0.76172 0.484375,-0.48828 0.761718,-1.14843 0.761718,-1.83984 z m 0,0"
           id="path262"
           inkscape:connector-curvature="0" />
      </g>
    </g>
    <g
       clip-path="url(#clip41)"
       id="g272"
       style="clip-rule:nonzero">
      <g
         clip-path="url(#clip42)"
         id="g270"
         style="clip-rule:nonzero">
        <path
           style="fill:#8fb030;fill-opacity:1;fill-rule:evenodd;stroke:none"
           d="m 275.60156,248 c 0,-0.69141 -0.27734,-1.35156 -0.76172,-1.83984 -0.48828,-0.48438 -1.14843,-0.76172 -1.83984,-0.76172 -0.69141,0 -1.35156,0.27734 -1.83984,0.76172 -0.48438,0.48828 -0.76172,1.14843 -0.76172,1.83984 0,0.69141 0.27734,1.35156 0.76172,1.83984 0.48828,0.48438 1.14843,0.76172 1.83984,0.76172 0.69141,0 1.35156,-0.27734 1.83984,-0.76172 0.48438,-0.48828 0.76172,-1.14843 0.76172,-1.83984 z m 0,0"
           id="path268"
           inkscape:connector-curvature="0" />
      </g>
    </g>
    <g
       clip-path="url(#clip43)"
       id="g278"
       style="clip-rule:nonzero">
      <g
         clip-path="url(#clip44)"
         id="g276"
         style="clip-rule:nonzero">
        <path
           style="fill:#8fb030;fill-opacity:1;fill-rule:evenodd;stroke:none"
           d="m 178.60156,192 c 0,-0.69141 -0.27734,-1.35156 -0.76172,-1.83984 -0.48828,-0.48438 -1.14843,-0.76172 -1.83984,-0.76172 -0.69141,0 -1.35156,0.27734 -1.83984,0.76172 -0.48438,0.48828 -0.76172,1.14843 -0.76172,1.83984 0,0.69141 0.27734,1.35156 0.76172,1.83984 0.48828,0.48438 1.14843,0.76172 1.83984,0.76172 0.69141,0 1.35156,-0.27734 1.83984,-0.76172 0.48438,-0.48828 0.76172,-1.14843 0.76172,-1.83984 z m 0,0"
           id="path274"
           inkscape:connector-curvature="0" />
      </g>
    </g>
    <g
       clip-path="url(#clip45)"
       id="g284"
       style="clip-rule:nonzero">
      <g
         clip-path="url(#clip46)"
         id="g282"
         style="clip-rule:nonzero">
        <path
           style="fill:none;stroke:#8fb030;stroke-width:1;stroke-linecap:square;stroke-linejoin:miter;stroke-miterlimit:3.25;stroke-opacity:1"
           d="m 277.38281,239.92187 -7.85937,-4.53906 -4.53907,7.86328"
           id="path280"
           inkscape:connector-curvature="0" />
      </g>
    </g>
    <g
       clip-path="url(#clip47)"
       id="g290"
       style="clip-rule:nonzero">
      <g
         clip-path="url(#clip48)"
         id="g288"
         style="clip-rule:nonzero">
        <path
           style="fill:none;stroke:#8fb030;stroke-width:1;stroke-linecap:square;stroke-linejoin:miter;stroke-miterlimit:3.25;stroke-opacity:1"
           d="m 180.6875,184.09375 7.85937,4.53906 -4.53906,7.85938"
           id="path286"
           inkscape:connector-curvature="0" />
      </g>
    </g>
  </g>
  <text
     xml:space="preserve"
     style="font-style:normal;font-weight:normal;font-size:30.00000191px;line-height:1.25;font-family:sans-serif;letter-spacing:0px;word-spacing:0px;fill:#000000;fill-opacity:1;stroke:none;stroke-width:0.75000006"
     x="20.81321"
     y="185.23279"
     id="text4832"><tspan
       sodipodi:role="line"
       id="tspan4830"
       x="20.81321"
       y="185.23279"
       style="font-size:12px;stroke-width:0.75000006">\rotatebox{10}{$\Gamma$}</tspan></text>
  <text
     xml:space="preserve"
     style="font-style:normal;font-weight:normal;font-size:30.00000191px;line-height:1.25;font-family:sans-serif;letter-spacing:0px;word-spacing:0px;fill:#000000;fill-opacity:1;stroke:none;stroke-width:0.75000006"
     x="146.95387"
     y="199.73897"
     id="text4836"><tspan
       sodipodi:role="line"
       id="tspan4834"
       x="146.95387"
       y="226.28194"
       style="stroke-width:0.75000006"></tspan></text>
  <text
     xml:space="preserve"
     style="font-style:normal;font-weight:normal;font-size:30.00000191px;line-height:1.25;font-family:sans-serif;letter-spacing:0px;word-spacing:0px;fill:#000000;fill-opacity:1;stroke:none;stroke-width:0.75"
     x="156.94682"
     y="205.06924"
     id="text4832-3"><tspan
       sodipodi:role="line"
       id="tspan4830-6"
       x="156.94682"
       y="205.06924"
       style="font-size:12px;stroke-width:0.75">\rotatebox{-18}{$\textcolor{BurntOrange}{P_\Gamma(T)}$}</tspan></text>
  <text
     xml:space="preserve"
     style="font-style:normal;font-weight:normal;font-size:30.00000191px;line-height:1.25;font-family:sans-serif;letter-spacing:0px;word-spacing:0px;fill:#000000;fill-opacity:1;stroke:none;stroke-width:0.75"
     x="166.96941"
     y="254.0139"
     id="text4832-7"><tspan
       sodipodi:role="line"
       id="tspan4830-5"
       x="166.96941"
       y="254.0139"
       style="font-size:12px;stroke-width:0.75">$T'$</tspan></text>
  <text
     xml:space="preserve"
     style="font-style:normal;font-weight:normal;font-size:30.00000191px;line-height:1.25;font-family:sans-serif;letter-spacing:0px;word-spacing:0px;fill:#000000;fill-opacity:1;stroke:none;stroke-width:0.75"
     x="325.98489"
     y="177.96564"
     id="text4832-7-3"><tspan
       sodipodi:role="line"
       id="tspan4830-5-5"
       x="325.98489"
       y="177.96564"
       style="font-size:12px;stroke-width:0.75">$T$</tspan></text>
  <text
     xml:space="preserve"
     style="font-style:normal;font-weight:normal;font-size:30.00000191px;line-height:1.25;font-family:sans-serif;letter-spacing:0px;word-spacing:0px;fill:#000000;fill-opacity:1;stroke:none;stroke-width:0.75"
     x="199.2213"
     y="176.51323"
     id="text4832-3-6"><tspan
       sodipodi:role="line"
       id="tspan4830-6-2"
       x="199.2213"
       y="176.51323"
       style="font-size:12px;stroke-width:0.75">\rotatebox{-25}{$\textcolor{Green}{S}$}</tspan></text>
  <text
     xml:space="preserve"
     style="font-style:normal;font-weight:normal;font-size:30.00000191px;line-height:1.25;font-family:sans-serif;letter-spacing:0px;word-spacing:0px;fill:#000000;fill-opacity:1;stroke:none;stroke-width:0.75"
     x="226.93358"
     y="133.24254"
     id="text4832-3-6-9"><tspan
       sodipodi:role="line"
       id="tspan4830-6-2-1"
       x="226.93358"
       y="133.24254"
       style="font-size:12px;stroke-width:0.75">$C_S$</tspan></text>
  <text
     xml:space="preserve"
     style="font-style:normal;font-weight:normal;font-size:30.00000191px;line-height:1.25;font-family:sans-serif;letter-spacing:0px;word-spacing:0px;fill:#000000;fill-opacity:1;stroke:none;stroke-width:0.75"
     x="277.07318"
     y="221.80363"
     id="text4832-3-6-9-2"><tspan
       sodipodi:role="line"
       id="tspan4830-6-2-1-7"
       x="277.07318"
       y="221.80363"
       style="font-size:12px;stroke-width:0.75">$\vect x_0$</tspan></text>
  <text
     xml:space="preserve"
     style="font-style:normal;font-weight:normal;font-size:30.00000191px;line-height:1.25;font-family:sans-serif;letter-spacing:0px;word-spacing:0px;fill:#000000;fill-opacity:1;stroke:none;stroke-width:0.75"
     x="49.552433"
     y="88.616127"
     id="text4832-3-6-0"><tspan
       sodipodi:role="line"
       id="tspan4830-6-2-9"
       x="49.552433"
       y="88.616127"
       style="font-size:12px;stroke-width:0.75">\rotatebox{-25}{$\lPlane$}</tspan></text>
</svg>
