<?xml version="1.0" encoding="UTF-8"?>
<svg xmlns="http://www.w3.org/2000/svg" xmlns:xlink="http://www.w3.org/1999/xlink" width="521pt" height="472pt" viewBox="0 0 521 472" version="1.1">
<defs>
<clipPath id="clip1">
  <path d="M 193 36 L 468 36 L 468 319 L 193 319 Z M 193 36 "/>
</clipPath>
<clipPath id="clip2">
  <path d="M 0 254.871094 L 374.121094 470.871094 L 520.621094 217.128906 L 146.5 1.128906 Z M 0 254.871094 "/>
</clipPath>
<clipPath id="clip3">
  <path d="M 188 31 L 472 31 L 472 323 L 188 323 Z M 188 31 "/>
</clipPath>
<clipPath id="clip4">
  <path d="M 0 254.871094 L 374.121094 470.871094 L 520.621094 217.128906 L 146.5 1.128906 Z M 0 254.871094 "/>
</clipPath>
<clipPath id="clip5">
  <path d="M 185 36 L 325 36 L 325 356 L 185 356 Z M 185 36 "/>
</clipPath>
<clipPath id="clip6">
  <path d="M 0 254.871094 L 374.121094 470.871094 L 520.621094 217.128906 L 146.5 1.128906 Z M 0 254.871094 "/>
</clipPath>
<clipPath id="clip7">
  <path d="M 181 31 L 330 31 L 330 360 L 181 360 Z M 181 31 "/>
</clipPath>
<clipPath id="clip8">
  <path d="M 0 254.871094 L 374.121094 470.871094 L 520.621094 217.128906 L 146.5 1.128906 Z M 0 254.871094 "/>
</clipPath>
<clipPath id="clip9">
  <path d="M 193 36 L 468 36 L 468 319 L 193 319 Z M 193 36 "/>
</clipPath>
<clipPath id="clip10">
  <path d="M 0 254.871094 L 374.121094 470.871094 L 520.621094 217.128906 L 146.5 1.128906 Z M 0 254.871094 "/>
</clipPath>
<clipPath id="clip11">
  <path d="M 188 31 L 472 31 L 472 323 L 188 323 Z M 188 31 "/>
</clipPath>
<clipPath id="clip12">
  <path d="M 0 254.871094 L 374.121094 470.871094 L 520.621094 217.128906 L 146.5 1.128906 Z M 0 254.871094 "/>
</clipPath>
<clipPath id="clip13">
  <path d="M 185 36 L 325 36 L 325 356 L 185 356 Z M 185 36 "/>
</clipPath>
<clipPath id="clip14">
  <path d="M 0 254.871094 L 374.121094 470.871094 L 520.621094 217.128906 L 146.5 1.128906 Z M 0 254.871094 "/>
</clipPath>
<clipPath id="clip15">
  <path d="M 181 31 L 330 31 L 330 360 L 181 360 Z M 181 31 "/>
</clipPath>
<clipPath id="clip16">
  <path d="M 0 254.871094 L 374.121094 470.871094 L 520.621094 217.128906 L 146.5 1.128906 Z M 0 254.871094 "/>
</clipPath>
<clipPath id="clip17">
  <path d="M 320 219 L 472 219 L 472 323 L 320 323 Z M 320 219 "/>
</clipPath>
<clipPath id="clip18">
  <path d="M 0 254.871094 L 374.121094 470.871094 L 520.621094 217.128906 L 146.5 1.128906 Z M 0 254.871094 "/>
</clipPath>
<clipPath id="clip19">
  <path d="M 188 31 L 472 31 L 472 229 L 188 229 Z M 188 31 "/>
</clipPath>
<clipPath id="clip20">
  <path d="M 0 254.871094 L 374.121094 470.871094 L 520.621094 217.128906 L 146.5 1.128906 Z M 0 254.871094 "/>
</clipPath>
<clipPath id="clip21">
  <path d="M 188 31 L 330 31 L 330 323 L 188 323 Z M 188 31 "/>
</clipPath>
<clipPath id="clip22">
  <path d="M 0 254.871094 L 374.121094 470.871094 L 520.621094 217.128906 L 146.5 1.128906 Z M 0 254.871094 "/>
</clipPath>
<clipPath id="clip23">
  <path d="M 181 31 L 199 31 L 199 360 L 181 360 Z M 181 31 "/>
</clipPath>
<clipPath id="clip24">
  <path d="M 0 254.871094 L 374.121094 470.871094 L 520.621094 217.128906 L 146.5 1.128906 Z M 0 254.871094 "/>
</clipPath>
<clipPath id="clip25">
  <path d="M 181 313 L 330 313 L 330 360 L 181 360 Z M 181 313 "/>
</clipPath>
<clipPath id="clip26">
  <path d="M 0 254.871094 L 374.121094 470.871094 L 520.621094 217.128906 L 146.5 1.128906 Z M 0 254.871094 "/>
</clipPath>
<clipPath id="clip27">
  <path d="M 330 288 L 424 288 L 424 392 L 330 392 Z M 330 288 "/>
</clipPath>
<clipPath id="clip28">
  <path d="M 0 254.871094 L 374.121094 470.871094 L 520.621094 217.128906 L 146.5 1.128906 Z M 0 254.871094 "/>
</clipPath>
<clipPath id="clip29">
  <path d="M 16 205 L 345 205 L 345 304 L 16 304 Z M 16 205 "/>
</clipPath>
<clipPath id="clip30">
  <path d="M 0 254.871094 L 374.121094 470.871094 L 520.621094 217.128906 L 146.5 1.128906 Z M 0 254.871094 "/>
</clipPath>
<clipPath id="clip31">
  <path d="M 64 135 L 443 135 L 443 360 L 64 360 Z M 64 135 "/>
</clipPath>
<clipPath id="clip32">
  <path d="M 0 254.871094 L 374.121094 470.871094 L 520.621094 217.128906 L 146.5 1.128906 Z M 0 254.871094 "/>
</clipPath>
<clipPath id="clip33">
  <path d="M 391 219 L 472 219 L 472 353 L 391 353 Z M 391 219 "/>
</clipPath>
<clipPath id="clip34">
  <path d="M 0 254.871094 L 374.121094 470.871094 L 520.621094 217.128906 L 146.5 1.128906 Z M 0 254.871094 "/>
</clipPath>
<clipPath id="clip35">
  <path d="M 87 31 L 199 31 L 199 218 L 87 218 Z M 87 31 "/>
</clipPath>
<clipPath id="clip36">
  <path d="M 0 254.871094 L 374.121094 470.871094 L 520.621094 217.128906 L 146.5 1.128906 Z M 0 254.871094 "/>
</clipPath>
<clipPath id="clip37">
  <path d="M 184 210 L 203 210 L 203 236 L 184 236 Z M 184 210 "/>
</clipPath>
<clipPath id="clip38">
  <path d="M 0 254.871094 L 374.121094 470.871094 L 520.621094 217.128906 L 146.5 1.128906 Z M 0 254.871094 "/>
</clipPath>
<clipPath id="clip39">
  <path d="M 390 315 L 414 315 L 414 334 L 390 334 Z M 390 315 "/>
</clipPath>
<clipPath id="clip40">
  <path d="M 0 254.871094 L 374.121094 470.871094 L 520.621094 217.128906 L 146.5 1.128906 Z M 0 254.871094 "/>
</clipPath>
<clipPath id="clip41">
  <path d="M 117 155 L 136 155 L 136 179 L 117 179 Z M 117 155 "/>
</clipPath>
<clipPath id="clip42">
  <path d="M 0 254.871094 L 374.121094 470.871094 L 520.621094 217.128906 L 146.5 1.128906 Z M 0 254.871094 "/>
</clipPath>
<clipPath id="clip43">
  <path d="M 321 280 L 412 280 L 412 364 L 321 364 Z M 321 280 "/>
</clipPath>
<clipPath id="clip44">
  <path d="M 0 254.871094 L 374.121094 470.871094 L 520.621094 217.128906 L 146.5 1.128906 Z M 0 254.871094 "/>
</clipPath>
<clipPath id="clip45">
  <path d="M 75 196 L 354 196 L 354 313 L 75 313 Z M 75 196 "/>
</clipPath>
<clipPath id="clip46">
  <path d="M 0 254.871094 L 374.121094 470.871094 L 520.621094 217.128906 L 146.5 1.128906 Z M 0 254.871094 "/>
</clipPath>
<clipPath id="clip47">
  <path d="M 197 105 L 370 105 L 370 278 L 197 278 Z M 197 105 "/>
</clipPath>
<clipPath id="clip48">
  <path d="M 0 254.871094 L 374.121094 470.871094 L 520.621094 217.128906 L 146.5 1.128906 Z M 0 254.871094 "/>
</clipPath>
<clipPath id="clip49">
  <path d="M 192 100 L 375 100 L 375 283 L 192 283 Z M 192 100 "/>
</clipPath>
<clipPath id="clip50">
  <path d="M 0 254.871094 L 374.121094 470.871094 L 520.621094 217.128906 L 146.5 1.128906 Z M 0 254.871094 "/>
</clipPath>
<clipPath id="clip51">
  <path d="M 181 199 L 323 199 L 323 294 L 181 294 Z M 181 199 "/>
</clipPath>
<clipPath id="clip52">
  <path d="M 0 254.871094 L 374.121094 470.871094 L 520.621094 217.128906 L 146.5 1.128906 Z M 0 254.871094 "/>
</clipPath>
<clipPath id="clip53">
  <path d="M 333 291 L 343 291 L 343 301 L 333 301 Z M 333 291 "/>
</clipPath>
<clipPath id="clip54">
  <path d="M 0 254.871094 L 374.121094 470.871094 L 520.621094 217.128906 L 146.5 1.128906 Z M 0 254.871094 "/>
</clipPath>
<clipPath id="clip55">
  <path d="M 391 343 L 401 343 L 401 353 L 391 353 Z M 391 343 "/>
</clipPath>
<clipPath id="clip56">
  <path d="M 0 254.871094 L 374.121094 470.871094 L 520.621094 217.128906 L 146.5 1.128906 Z M 0 254.871094 "/>
</clipPath>
<clipPath id="clip57">
  <path d="M 87 208 L 97 208 L 97 218 L 87 218 Z M 87 208 "/>
</clipPath>
<clipPath id="clip58">
  <path d="M 0 254.871094 L 374.121094 470.871094 L 520.621094 217.128906 L 146.5 1.128906 Z M 0 254.871094 "/>
</clipPath>
<clipPath id="clip59">
  <path d="M 301 273 L 311 273 L 311 283 L 301 283 Z M 301 273 "/>
</clipPath>
<clipPath id="clip60">
  <path d="M 0 254.871094 L 374.121094 470.871094 L 520.621094 217.128906 L 146.5 1.128906 Z M 0 254.871094 "/>
</clipPath>
<clipPath id="clip61">
  <path d="M 193 210 L 203 210 L 203 220 L 193 220 Z M 193 210 "/>
</clipPath>
<clipPath id="clip62">
  <path d="M 0 254.871094 L 374.121094 470.871094 L 520.621094 217.128906 L 146.5 1.128906 Z M 0 254.871094 "/>
</clipPath>
<clipPath id="clip63">
  <path d="M 292 259 L 316 259 L 316 278 L 292 278 Z M 292 259 "/>
</clipPath>
<clipPath id="clip64">
  <path d="M 0 254.871094 L 374.121094 470.871094 L 520.621094 217.128906 L 146.5 1.128906 Z M 0 254.871094 "/>
</clipPath>
<clipPath id="clip65">
  <path d="M 198 201 L 217 201 L 217 225 L 198 225 Z M 198 201 "/>
</clipPath>
<clipPath id="clip66">
  <path d="M 0 254.871094 L 374.121094 470.871094 L 520.621094 217.128906 L 146.5 1.128906 Z M 0 254.871094 "/>
</clipPath>
</defs>
<g id="surface9">
<g clip-path="url(#clip1)" clip-rule="nonzero">
<g clip-path="url(#clip2)" clip-rule="nonzero">
<path style="fill-rule:nonzero;fill:rgb(66.497803%,77.897644%,94.998169%);fill-opacity:1;stroke-width:0.03;stroke-linecap:square;stroke-linejoin:miter;stroke:rgb(66.497803%,77.897644%,94.998169%);stroke-opacity:1;stroke-miterlimit:3.25;" d="M 324.8125 318.109375 L 467.300781 224.03125 L 193.472656 36.546875 Z M 324.8125 318.109375 "/>
</g>
</g>
<g clip-path="url(#clip3)" clip-rule="nonzero">
<g clip-path="url(#clip4)" clip-rule="nonzero">
<path style="fill:none;stroke-width:1;stroke-linecap:square;stroke-linejoin:miter;stroke:rgb(52.497864%,61.499023%,74.998474%);stroke-opacity:1;stroke-miterlimit:3.25;" d="M 324.8125 318.109375 L 467.300781 224.03125 L 193.472656 36.546875 Z M 324.8125 318.109375 "/>
</g>
</g>
<g clip-path="url(#clip5)" clip-rule="nonzero">
<g clip-path="url(#clip6)" clip-rule="nonzero">
<path style="fill-rule:nonzero;fill:rgb(66.497803%,77.897644%,94.998169%);fill-opacity:1;stroke-width:0.03;stroke-linecap:square;stroke-linejoin:miter;stroke:rgb(66.497803%,77.897644%,94.998169%);stroke-opacity:1;stroke-miterlimit:3.25;" d="M 324.8125 318.109375 L 193.472656 36.546875 L 185.738281 355.375 Z M 324.8125 318.109375 "/>
</g>
</g>
<g clip-path="url(#clip7)" clip-rule="nonzero">
<g clip-path="url(#clip8)" clip-rule="nonzero">
<path style="fill:none;stroke-width:1;stroke-linecap:square;stroke-linejoin:miter;stroke:rgb(52.497864%,61.499023%,74.998474%);stroke-opacity:1;stroke-miterlimit:3.25;" d="M 324.8125 318.109375 L 193.472656 36.546875 L 185.738281 355.375 Z M 324.8125 318.109375 "/>
</g>
</g>
<g clip-path="url(#clip9)" clip-rule="nonzero">
<g clip-path="url(#clip10)" clip-rule="nonzero">
<path style="fill-rule:nonzero;fill:rgb(99.998474%,99.998474%,70.195007%);fill-opacity:1;stroke-width:0.03;stroke-linecap:square;stroke-linejoin:miter;stroke:rgb(99.998474%,99.998474%,70.195007%);stroke-opacity:1;stroke-miterlimit:3.25;" d="M 324.8125 318.109375 L 467.300781 224.03125 L 193.472656 36.546875 Z M 324.8125 318.109375 "/>
</g>
</g>
<g clip-path="url(#clip11)" clip-rule="nonzero">
<g clip-path="url(#clip12)" clip-rule="nonzero">
<path style="fill:none;stroke-width:1;stroke-linecap:square;stroke-linejoin:miter;stroke:rgb(52.497864%,61.499023%,74.998474%);stroke-opacity:1;stroke-miterlimit:3.25;" d="M 324.8125 318.109375 L 467.300781 224.03125 L 193.472656 36.546875 Z M 324.8125 318.109375 "/>
</g>
</g>
<g clip-path="url(#clip13)" clip-rule="nonzero">
<g clip-path="url(#clip14)" clip-rule="nonzero">
<path style="fill-rule:nonzero;fill:rgb(99.998474%,99.998474%,70.195007%);fill-opacity:1;stroke-width:0.03;stroke-linecap:square;stroke-linejoin:miter;stroke:rgb(99.998474%,99.998474%,70.195007%);stroke-opacity:1;stroke-miterlimit:3.25;" d="M 324.8125 318.109375 L 193.472656 36.546875 L 185.738281 355.375 Z M 324.8125 318.109375 "/>
</g>
</g>
<g clip-path="url(#clip15)" clip-rule="nonzero">
<g clip-path="url(#clip16)" clip-rule="nonzero">
<path style="fill:none;stroke-width:1;stroke-linecap:square;stroke-linejoin:miter;stroke:rgb(52.497864%,61.499023%,74.998474%);stroke-opacity:1;stroke-miterlimit:3.25;" d="M 324.8125 318.109375 L 193.472656 36.546875 L 185.738281 355.375 Z M 324.8125 318.109375 "/>
</g>
</g>
<g clip-path="url(#clip17)" clip-rule="nonzero">
<g clip-path="url(#clip18)" clip-rule="nonzero">
<path style="fill:none;stroke-width:1;stroke-linecap:square;stroke-linejoin:miter;stroke:rgb(0%,0%,0%);stroke-opacity:1;stroke-miterlimit:3.25;" d="M 324.8125 318.109375 L 467.300781 224.03125 "/>
</g>
</g>
<g clip-path="url(#clip19)" clip-rule="nonzero">
<g clip-path="url(#clip20)" clip-rule="nonzero">
<path style="fill:none;stroke-width:1;stroke-linecap:square;stroke-linejoin:miter;stroke:rgb(0%,0%,0%);stroke-opacity:1;stroke-miterlimit:3.25;" d="M 467.300781 224.03125 L 193.472656 36.546875 "/>
</g>
</g>
<g clip-path="url(#clip21)" clip-rule="nonzero">
<g clip-path="url(#clip22)" clip-rule="nonzero">
<path style="fill:none;stroke-width:1;stroke-linecap:square;stroke-linejoin:miter;stroke:rgb(0%,0%,0%);stroke-opacity:1;stroke-miterlimit:3.25;" d="M 193.472656 36.546875 L 324.8125 318.109375 "/>
</g>
</g>
<g clip-path="url(#clip23)" clip-rule="nonzero">
<g clip-path="url(#clip24)" clip-rule="nonzero">
<path style="fill:none;stroke-width:1;stroke-linecap:square;stroke-linejoin:miter;stroke:rgb(0%,0%,0%);stroke-opacity:1;stroke-miterlimit:3.25;" d="M 193.472656 36.546875 L 185.738281 355.375 "/>
</g>
</g>
<g clip-path="url(#clip25)" clip-rule="nonzero">
<g clip-path="url(#clip26)" clip-rule="nonzero">
<path style="fill:none;stroke-width:1;stroke-linecap:square;stroke-linejoin:miter;stroke:rgb(0%,0%,0%);stroke-opacity:1;stroke-miterlimit:3.25;" d="M 185.738281 355.375 L 324.8125 318.109375 "/>
</g>
</g>
<g clip-path="url(#clip27)" clip-rule="nonzero">
<g clip-path="url(#clip28)" clip-rule="nonzero">
<path style="fill:none;stroke-width:1.6;stroke-linecap:square;stroke-linejoin:miter;stroke:rgb(0%,0%,0%);stroke-opacity:1;stroke-miterlimit:3.25;" d="M 416.316406 384.589844 L 416.285156 384.503906 L 416.25 384.417969 L 416.183594 384.246094 L 416.046875 383.898438 L 415.773438 383.210938 L 415.210938 381.835938 L 414.042969 379.09375 L 411.308594 373.1875 L 408.511719 367.730469 L 405.539062 362.449219 L 402.070312 356.796875 L 398.605469 351.613281 L 394.613281 346.101562 L 390.457031 340.804688 L 386.375 335.980469 L 381.738281 330.878906 L 377.214844 326.253906 L 372.609375 321.851562 L 372.527344 321.777344 L 372.449219 321.703125 L 372.289062 321.558594 L 371.972656 321.265625 L 371.332031 320.679688 L 370.039062 319.523438 L 367.425781 317.234375 L 367.347656 317.167969 L 367.273438 317.101562 L 367.117188 316.96875 L 366.808594 316.707031 L 366.191406 316.179688 L 364.945312 315.136719 L 364.867188 315.074219 L 364.789062 315.007812 L 364.320312 314.621094 L 363.691406 314.105469 L 362.425781 313.082031 L 362.339844 313.011719 L 362.253906 312.945312 L 362.082031 312.804688 L 361.738281 312.53125 L 361.046875 311.984375 L 359.652344 310.898438 L 359.566406 310.828125 L 359.480469 310.761719 L 359.304688 310.628906 L 358.953125 310.359375 L 358.25 309.824219 L 356.835938 308.757812 L 356.75 308.695312 L 356.664062 308.628906 L 356.488281 308.5 L 356.140625 308.242188 L 355.441406 307.726562 L 354.03125 306.707031 L 353.945312 306.644531 L 353.855469 306.582031 L 353.679688 306.457031 L 353.324219 306.203125 L 352.617188 305.699219 L 351.191406 304.707031 L 351.105469 304.648438 L 351.023438 304.589844 L 350.855469 304.476562 L 350.523438 304.246094 L 349.851562 303.789062 L 349.769531 303.730469 L 349.683594 303.675781 L 349.515625 303.558594 L 349.179688 303.332031 L 348.503906 302.882812 L 348.421875 302.824219 L 348.335938 302.769531 L 348.167969 302.65625 L 347.828125 302.433594 L 347.152344 301.984375 L 345.789062 301.101562 L 345.695312 301.039062 L 345.605469 300.980469 L 345.417969 300.863281 L 345.046875 300.625 L 344.304688 300.152344 L 343.929688 299.917969 L 343.558594 299.683594 L 342.808594 299.21875 L 342.621094 299.101562 L 342.433594 298.988281 L 342.058594 298.753906 L 341.964844 298.699219 L 341.871094 298.640625 L 341.683594 298.527344 L 341.308594 298.296875 L 341.210938 298.238281 L 341.117188 298.183594 L 340.929688 298.070312 L 340.742188 297.953125 L 340.550781 297.839844 L 340.457031 297.785156 L 340.363281 297.726562 L 340.175781 297.613281 L 339.796875 297.386719 L 339.707031 297.335938 L 339.621094 297.285156 L 339.441406 297.179688 L 339.355469 297.125 L 339.265625 297.074219 L 339.089844 296.96875 L 339 296.917969 L 338.910156 296.863281 L 338.820312 296.8125 L 338.734375 296.761719 L 338.644531 296.707031 L 338.554688 296.65625 L 338.46875 296.605469 L 338.378906 296.554688 L 338.289062 296.5 L 338.199219 296.449219 L 338.113281 296.398438 L 338.023438 296.347656 L 337.933594 296.292969 L 337.84375 296.242188 L 337.757812 296.191406 L 337.667969 296.140625 L 337.632812 296.121094 "/>
</g>
</g>
<g clip-path="url(#clip29)" clip-rule="nonzero">
<g clip-path="url(#clip30)" clip-rule="nonzero">
<path style="fill:none;stroke-width:1.6;stroke-linecap:square;stroke-linejoin:miter;stroke:rgb(0%,0%,0%);stroke-opacity:1;stroke-miterlimit:3.25;" d="M 337.355469 295.960938 L 337.082031 295.800781 L 336.902344 295.699219 L 336.726562 295.597656 L 336.546875 295.492188 L 336.367188 295.390625 L 336.191406 295.289062 L 336.011719 295.1875 L 335.832031 295.082031 L 335.65625 294.980469 L 335.296875 294.777344 L 334.941406 294.570312 L 334.761719 294.46875 L 334.585938 294.367188 L 334.046875 294.0625 L 333.871094 293.960938 L 333.332031 293.65625 L 333.15625 293.554688 L 332.796875 293.347656 L 332.617188 293.246094 L 332.441406 293.148438 L 331.722656 292.742188 L 331.367188 292.539062 L 330.648438 292.132812 L 330.457031 292.023438 L 330.261719 291.914062 L 329.875 291.695312 L 329.097656 291.257812 L 328.902344 291.152344 L 328.707031 291.042969 L 328.320312 290.824219 L 327.542969 290.390625 L 327.152344 290.171875 L 326.761719 289.957031 L 325.984375 289.523438 L 324.425781 288.660156 L 324.230469 288.550781 L 324.035156 288.445312 L 323.644531 288.230469 L 322.867188 287.800781 L 321.304688 286.945312 L 321.109375 286.835938 L 320.523438 286.519531 L 319.742188 286.09375 L 318.175781 285.242188 L 317.984375 285.140625 L 317.792969 285.035156 L 317.40625 284.828125 L 316.640625 284.414062 L 315.101562 283.589844 L 312.019531 281.949219 L 311.828125 281.847656 L 311.632812 281.746094 L 311.246094 281.542969 L 310.476562 281.136719 L 308.933594 280.324219 L 305.84375 278.714844 L 305.664062 278.621094 L 305.484375 278.53125 L 305.121094 278.34375 L 304.402344 277.972656 L 302.957031 277.230469 L 300.066406 275.753906 L 299.886719 275.664062 L 299.707031 275.570312 L 299.34375 275.390625 L 298.621094 275.023438 L 297.175781 274.296875 L 294.28125 272.847656 L 294.085938 272.75 L 293.890625 272.65625 L 293.496094 272.460938 L 292.710938 272.070312 L 291.140625 271.296875 L 288 269.761719 L 281.707031 266.742188 L 281.339844 266.570312 L 280.972656 266.394531 L 280.238281 266.046875 L 278.769531 265.355469 L 275.832031 263.984375 L 269.953125 261.289062 L 269.773438 261.207031 L 269.59375 261.128906 L 269.234375 260.964844 L 268.511719 260.640625 L 267.074219 259.992188 L 264.195312 258.707031 L 258.4375 256.1875 L 245.972656 250.933594 L 234.390625 246.308594 L 221.914062 241.597656 L 209.765625 237.296875 L 198.546875 233.578125 L 186.519531 229.871094 L 175.453125 226.722656 L 164.765625 223.941406 L 153.371094 221.257812 L 142.953125 219.082031 L 131.910156 217.078125 L 121.851562 215.546875 L 112.246094 214.371094 L 102.132812 213.453125 L 93 212.9375 L 83.449219 212.75 L 74.445312 212.949219 L 66.394531 213.46875 L 58.058594 214.398438 L 50.660156 215.609375 L 43.78125 217.113281 L 36.75 219.101562 L 30.605469 221.285156 L 30.5 221.328125 L 30.398438 221.367188 L 30.191406 221.449219 L 29.78125 221.617188 L 28.964844 221.953125 L 27.355469 222.640625 L 27.253906 222.6875 L 27.15625 222.730469 L 26.957031 222.820312 L 26.5625 222.996094 L 25.777344 223.355469 L 25.582031 223.449219 L 25.390625 223.539062 L 25.003906 223.722656 L 24.808594 223.816406 L 24.617188 223.910156 L 24.523438 223.957031 L 24.425781 224.003906 L 24.332031 224.050781 L 24.234375 224.097656 "/>
</g>
</g>
<g clip-path="url(#clip31)" clip-rule="nonzero">
<g clip-path="url(#clip32)" clip-rule="nonzero">
<path style="fill:none;stroke-width:1.6;stroke-linecap:square;stroke-linejoin:miter;stroke:rgb(0%,0%,0%);stroke-opacity:1;stroke-miterlimit:3.25;" d="M 434.957031 352.308594 L 431.386719 350.25 L 427.820312 348.1875 L 420.082031 343.722656 L 412.859375 339.550781 L 405.777344 335.460938 L 398.09375 331.027344 L 390.925781 326.886719 L 383.15625 322.402344 L 375.527344 317.996094 L 368.410156 313.890625 L 360.695312 309.433594 L 353.492188 305.277344 L 346.429688 301.199219 L 338.769531 296.777344 L 331.621094 292.648438 L 323.871094 288.175781 L 316.265625 283.78125 L 309.167969 279.6875 L 301.472656 275.242188 L 294.292969 271.097656 L 286.507812 266.605469 L 278.867188 262.191406 L 271.738281 258.078125 L 264.011719 253.613281 L 256.796875 249.449219 L 249.722656 245.363281 L 242.046875 240.933594 L 234.886719 236.796875 L 227.125 232.316406 L 219.503906 227.917969 L 212.394531 223.8125 L 204.6875 219.363281 L 197.492188 215.210938 L 190.4375 211.136719 L 182.785156 206.71875 L 175.644531 202.597656 L 167.902344 198.125 L 160.675781 193.953125 L 153.585938 189.859375 L 145.902344 185.421875 L 138.726562 181.28125 L 130.953125 176.792969 L 123.316406 172.386719 L 116.199219 168.273438 L 108.476562 163.816406 L 101.269531 159.65625 L 94.203125 155.574219 L 86.535156 151.148438 L 79.382812 147.019531 L 71.398438 142.410156 "/>
</g>
</g>
<g clip-path="url(#clip33)" clip-rule="nonzero">
<g clip-path="url(#clip34)" clip-rule="nonzero">
<path style="fill:none;stroke-width:1;stroke-linecap:square;stroke-linejoin:miter;stroke:rgb(0%,0%,0%);stroke-opacity:1;stroke-dasharray:4,4;stroke-miterlimit:3.25;" d="M 467.300781 224.03125 L 395.859375 347.773438 "/>
</g>
</g>
<g clip-path="url(#clip35)" clip-rule="nonzero">
<g clip-path="url(#clip36)" clip-rule="nonzero">
<path style="fill:none;stroke-width:1;stroke-linecap:square;stroke-linejoin:miter;stroke:rgb(0%,0%,0%);stroke-opacity:1;stroke-dasharray:4,4;stroke-miterlimit:3.25;" d="M 193.472656 36.546875 L 91.664062 212.890625 "/>
</g>
</g>
<g clip-path="url(#clip37)" clip-rule="nonzero">
<g clip-path="url(#clip38)" clip-rule="nonzero">
<path style="fill:none;stroke-width:1;stroke-linecap:square;stroke-linejoin:miter;stroke:rgb(0%,0%,0%);stroke-opacity:1;stroke-dasharray:4,4;stroke-miterlimit:3.25;" d="M 197.585938 215.265625 L 188.765625 230.539062 "/>
</g>
</g>
<g clip-path="url(#clip39)" clip-rule="nonzero">
<g clip-path="url(#clip40)" clip-rule="nonzero">
<path style="fill:none;stroke-width:1;stroke-linecap:square;stroke-linejoin:miter;stroke:rgb(0%,0%,0%);stroke-opacity:1;stroke-miterlimit:3.25;" d="M 408.757812 325.429688 L 399.941406 320.335938 L 394.851562 329.15625 "/>
</g>
</g>
<g clip-path="url(#clip41)" clip-rule="nonzero">
<g clip-path="url(#clip42)" clip-rule="nonzero">
<path style="fill:none;stroke-width:1;stroke-linecap:square;stroke-linejoin:miter;stroke:rgb(0%,0%,0%);stroke-opacity:1;stroke-miterlimit:3.25;" d="M 122.207031 159.988281 L 131.023438 165.078125 L 125.933594 173.894531 "/>
</g>
</g>
<g clip-path="url(#clip43)" clip-rule="nonzero">
<g clip-path="url(#clip44)" clip-rule="nonzero">
<path style="fill:none;stroke-width:3.499722;stroke-linecap:square;stroke-linejoin:miter;stroke:rgb(0%,0%,0%);stroke-opacity:1;stroke-miterlimit:3.25;" d="M 395.859375 347.773438 L 395.820312 347.71875 L 395.777344 347.664062 L 395.699219 347.558594 L 395.542969 347.34375 L 395.222656 346.914062 L 394.582031 346.058594 L 393.277344 344.355469 L 390.378906 340.710938 L 387.570312 337.359375 L 384.730469 334.125 L 381.550781 330.683594 L 378.5 327.535156 L 375.09375 324.191406 L 371.660156 320.980469 L 368.378906 318.058594 L 364.738281 314.964844 L 361.261719 312.15625 L 361.207031 312.113281 L 361.15625 312.070312 L 361.046875 311.984375 L 360.832031 311.816406 L 360.398438 311.476562 L 359.535156 310.804688 L 357.789062 309.472656 L 357.726562 309.425781 L 357.667969 309.382812 L 357.550781 309.292969 L 357.3125 309.113281 L 356.832031 308.757812 L 355.875 308.046875 L 355.816406 308.003906 L 355.753906 307.960938 L 355.636719 307.871094 L 355.394531 307.695312 L 354.914062 307.34375 L 353.945312 306.644531 L 353.886719 306.605469 L 353.832031 306.5625 L 353.71875 306.484375 L 353.492188 306.320312 L 353.039062 306 L 352.125 305.355469 L 352.070312 305.316406 L 352.011719 305.277344 L 351.898438 305.199219 L 351.671875 305.039062 L 351.210938 304.71875 L 350.292969 304.089844 L 350.042969 303.917969 L 349.792969 303.75 L 349.292969 303.410156 L 348.289062 302.738281 L 348.164062 302.652344 L 348.039062 302.570312 L 347.785156 302.402344 L 347.28125 302.070312 L 346.269531 301.410156 L 346.207031 301.367188 L 346.144531 301.328125 L 346.019531 301.246094 L 345.269531 300.765625 L 345.144531 300.6875 L 345.019531 300.605469 L 344.769531 300.445312 L 344.265625 300.128906 L 344.015625 299.972656 L 343.765625 299.8125 L 343.261719 299.5 L 343.199219 299.457031 L 343.132812 299.417969 L 342.757812 299.183594 L 342.25 298.871094 L 342.132812 298.800781 L 342.015625 298.726562 L 341.777344 298.582031 L 341.660156 298.511719 L 341.542969 298.4375 L 341.304688 298.296875 L 341.246094 298.257812 L 341.1875 298.222656 L 341.066406 298.152344 L 340.832031 298.007812 L 340.355469 297.722656 L 340.238281 297.652344 L 340.117188 297.582031 L 339.878906 297.4375 L 339.761719 297.367188 L 339.640625 297.296875 L 339.402344 297.15625 L 339.285156 297.085938 L 339.164062 297.015625 L 339.046875 296.945312 L 338.925781 296.875 L 338.808594 296.804688 L 338.6875 296.734375 L 338.628906 296.699219 L 338.566406 296.664062 L 338.449219 296.59375 L 338.382812 296.554688 L 338.320312 296.519531 L 338.1875 296.441406 L 338.125 296.40625 L 338.058594 296.367188 L 337.996094 296.328125 L 337.929688 296.292969 L 337.863281 296.253906 L 337.800781 296.214844 L 337.734375 296.179688 L 337.667969 296.140625 L 337.605469 296.101562 L 337.601562 296.101562 "/>
</g>
</g>
<g clip-path="url(#clip45)" clip-rule="nonzero">
<g clip-path="url(#clip46)" clip-rule="nonzero">
<path style="fill:none;stroke-width:3.499722;stroke-linecap:square;stroke-linejoin:miter;stroke:rgb(0%,0%,0%);stroke-opacity:1;stroke-miterlimit:3.25;" d="M 337.414062 295.992188 L 337.277344 295.914062 L 337.019531 295.765625 L 336.886719 295.691406 L 336.757812 295.613281 L 336.628906 295.539062 L 336.496094 295.464844 L 336.238281 295.316406 L 336.105469 295.242188 L 335.976562 295.164062 L 335.84375 295.089844 L 335.585938 294.941406 L 335.453125 294.867188 L 335.195312 294.71875 L 335.0625 294.640625 L 334.933594 294.566406 L 334.671875 294.417969 L 334.542969 294.34375 L 334.410156 294.269531 L 334.152344 294.121094 L 334.019531 294.046875 L 333.890625 293.972656 L 333.628906 293.824219 L 333.105469 293.523438 L 332.976562 293.449219 L 332.84375 293.375 L 332.582031 293.226562 L 332.0625 292.933594 L 331.929688 292.859375 L 331.800781 292.785156 L 331.015625 292.339844 L 330.894531 292.269531 L 330.769531 292.203125 L 330.527344 292.0625 L 330.039062 291.789062 L 329.0625 291.238281 L 328.9375 291.171875 L 328.816406 291.101562 L 328.570312 290.964844 L 328.082031 290.691406 L 327.101562 290.144531 L 326.980469 290.078125 L 326.859375 290.007812 L 326.613281 289.871094 L 326.125 289.601562 L 325.144531 289.054688 L 323.179688 287.972656 L 323.046875 287.898438 L 322.914062 287.828125 L 322.648438 287.679688 L 322.117188 287.386719 L 321.050781 286.804688 L 318.917969 285.644531 L 318.785156 285.574219 L 318.652344 285.5 L 318.386719 285.355469 L 317.851562 285.070312 L 316.785156 284.492188 L 314.648438 283.347656 L 314.382812 283.207031 L 314.121094 283.066406 L 313.597656 282.789062 L 312.546875 282.230469 L 310.445312 281.117188 L 310.3125 281.050781 L 310.179688 280.980469 L 309.917969 280.839844 L 309.390625 280.566406 L 308.339844 280.015625 L 306.230469 278.917969 L 306.109375 278.855469 L 305.984375 278.789062 L 305.738281 278.664062 L 305.25 278.410156 L 304.265625 277.902344 L 302.296875 276.890625 L 298.355469 274.886719 L 298.222656 274.820312 L 298.085938 274.753906 L 297.820312 274.621094 L 296.214844 273.8125 L 294.074219 272.746094 L 289.792969 270.636719 L 289.667969 270.574219 L 289.542969 270.515625 L 289.292969 270.390625 L 288.792969 270.148438 L 287.792969 269.660156 L 285.789062 268.695312 L 281.785156 266.78125 L 273.929688 263.105469 L 265.40625 259.246094 L 257.460938 255.765625 L 248.863281 252.128906 L 240.445312 248.695312 L 232.621094 245.621094 L 224.171875 242.429688 L 216.324219 239.585938 L 208.679688 236.925781 L 200.4375 234.1875 L 192.808594 231.773438 L 184.609375 229.308594 L 177.027344 227.15625 L 169.671875 225.1875 L 161.785156 223.210938 L 154.515625 221.511719 L 146.742188 219.84375 L 139.230469 218.371094 L 132.328125 217.148438 L 124.972656 215.992188 L 118.226562 215.070312 L 111.734375 214.316406 L 104.835938 213.664062 L 98.53125 213.210938 L 98.425781 213.207031 L 98.316406 213.199219 L 98.097656 213.1875 L 97.664062 213.160156 L 96.800781 213.113281 L 95.074219 213.027344 L 94.96875 213.023438 L 94.859375 213.015625 L 94.648438 213.007812 L 94.21875 212.988281 L 93.363281 212.953125 L 93.257812 212.949219 L 93.148438 212.941406 L 92.9375 212.933594 L 92.511719 212.917969 L 92.300781 212.910156 L 92.085938 212.902344 L 91.769531 212.890625 L 91.664062 212.890625 "/>
</g>
</g>
<g clip-path="url(#clip47)" clip-rule="nonzero">
<g clip-path="url(#clip48)" clip-rule="nonzero">
<path style=" stroke:none;fill-rule:nonzero;fill:rgb(55.293274%,82.743835%,78.038025%);fill-opacity:0.8;" d="M 306.050781 277.886719 L 369.683594 167.671875 L 261.21875 105.050781 L 197.585938 215.265625 Z M 306.050781 277.886719 "/>
</g>
</g>
<g clip-path="url(#clip49)" clip-rule="nonzero">
<g clip-path="url(#clip50)" clip-rule="nonzero">
<path style="fill:none;stroke-width:1;stroke-linecap:square;stroke-linejoin:miter;stroke:rgb(0%,0%,0%);stroke-opacity:1;stroke-miterlimit:3.25;" d="M 306.050781 277.886719 L 369.683594 167.671875 L 261.21875 105.050781 L 197.585938 215.265625 Z M 306.050781 277.886719 "/>
</g>
</g>
<g clip-path="url(#clip51)" clip-rule="nonzero">
<g clip-path="url(#clip52)" clip-rule="nonzero">
<path style="fill:none;stroke-width:3.499722;stroke-linecap:square;stroke-linejoin:miter;stroke:rgb(0%,0%,0%);stroke-opacity:1;stroke-miterlimit:3.25;" d="M 306.050781 277.886719 L 197.585938 215.265625 "/>
</g>
</g>
<g clip-path="url(#clip53)" clip-rule="nonzero">
<g clip-path="url(#clip54)" clip-rule="nonzero">
<path style=" stroke:none;fill-rule:evenodd;fill:rgb(0%,0%,0%);fill-opacity:1;" d="M 342.375 296 C 342.375 294.839844 341.914062 293.726562 341.09375 292.90625 C 340.273438 292.085938 339.160156 291.625 338 291.625 C 336.839844 291.625 335.726562 292.085938 334.90625 292.90625 C 334.085938 293.726562 333.625 294.839844 333.625 296 C 333.625 297.160156 334.085938 298.273438 334.90625 299.09375 C 335.726562 299.914062 336.839844 300.375 338 300.375 C 339.160156 300.375 340.273438 299.914062 341.09375 299.09375 C 341.914062 298.273438 342.375 297.160156 342.375 296 Z M 342.375 296 "/>
</g>
</g>
<g clip-path="url(#clip55)" clip-rule="nonzero">
<g clip-path="url(#clip56)" clip-rule="nonzero">
<path style=" stroke:none;fill-rule:evenodd;fill:rgb(0%,0%,0%);fill-opacity:1;" d="M 400.375 348 C 400.375 346.839844 399.914062 345.726562 399.09375 344.90625 C 398.273438 344.085938 397.160156 343.625 396 343.625 C 394.839844 343.625 393.726562 344.085938 392.90625 344.90625 C 392.085938 345.726562 391.625 346.839844 391.625 348 C 391.625 349.160156 392.085938 350.273438 392.90625 351.09375 C 393.726562 351.914062 394.839844 352.375 396 352.375 C 397.160156 352.375 398.273438 351.914062 399.09375 351.09375 C 399.914062 350.273438 400.375 349.160156 400.375 348 Z M 400.375 348 "/>
</g>
</g>
<g clip-path="url(#clip57)" clip-rule="nonzero">
<g clip-path="url(#clip58)" clip-rule="nonzero">
<path style=" stroke:none;fill-rule:evenodd;fill:rgb(0%,0%,0%);fill-opacity:1;" d="M 96.375 213 C 96.375 211.839844 95.914062 210.726562 95.09375 209.90625 C 94.273438 209.085938 93.160156 208.625 92 208.625 C 90.839844 208.625 89.726562 209.085938 88.90625 209.90625 C 88.085938 210.726562 87.625 211.839844 87.625 213 C 87.625 214.160156 88.085938 215.273438 88.90625 216.09375 C 89.726562 216.914062 90.839844 217.375 92 217.375 C 93.160156 217.375 94.273438 216.914062 95.09375 216.09375 C 95.914062 215.273438 96.375 214.160156 96.375 213 Z M 96.375 213 "/>
</g>
</g>
<g clip-path="url(#clip59)" clip-rule="nonzero">
<g clip-path="url(#clip60)" clip-rule="nonzero">
<path style=" stroke:none;fill-rule:evenodd;fill:rgb(0%,0%,0%);fill-opacity:1;" d="M 310.375 278 C 310.375 276.839844 309.914062 275.726562 309.09375 274.90625 C 308.273438 274.085938 307.160156 273.625 306 273.625 C 304.839844 273.625 303.726562 274.085938 302.90625 274.90625 C 302.085938 275.726562 301.625 276.839844 301.625 278 C 301.625 279.160156 302.085938 280.273438 302.90625 281.09375 C 303.726562 281.914062 304.839844 282.375 306 282.375 C 307.160156 282.375 308.273438 281.914062 309.09375 281.09375 C 309.914062 280.273438 310.375 279.160156 310.375 278 Z M 310.375 278 "/>
</g>
</g>
<g clip-path="url(#clip61)" clip-rule="nonzero">
<g clip-path="url(#clip62)" clip-rule="nonzero">
<path style=" stroke:none;fill-rule:evenodd;fill:rgb(0%,0%,0%);fill-opacity:1;" d="M 202.375 215 C 202.375 213.839844 201.914062 212.726562 201.09375 211.90625 C 200.273438 211.085938 199.160156 210.625 198 210.625 C 196.839844 210.625 195.726562 211.085938 194.90625 211.90625 C 194.085938 212.726562 193.625 213.839844 193.625 215 C 193.625 216.160156 194.085938 217.273438 194.90625 218.09375 C 195.726562 218.914062 196.839844 219.375 198 219.375 C 199.160156 219.375 200.273438 218.914062 201.09375 218.09375 C 201.914062 217.273438 202.375 216.160156 202.375 215 Z M 202.375 215 "/>
</g>
</g>
<g clip-path="url(#clip63)" clip-rule="nonzero">
<g clip-path="url(#clip64)" clip-rule="nonzero">
<path style="fill:none;stroke-width:1;stroke-linecap:square;stroke-linejoin:miter;stroke:rgb(0%,0%,0%);stroke-opacity:1;stroke-miterlimit:3.25;" d="M 311.140625 269.070312 L 302.324219 263.976562 L 297.234375 272.796875 "/>
</g>
</g>
<g clip-path="url(#clip65)" clip-rule="nonzero">
<g clip-path="url(#clip66)" clip-rule="nonzero">
<path style="fill:none;stroke-width:1;stroke-linecap:square;stroke-linejoin:miter;stroke:rgb(0%,0%,0%);stroke-opacity:1;stroke-miterlimit:3.25;" d="M 202.675781 206.445312 L 211.492188 211.539062 L 206.402344 220.355469 "/>
</g>
</g>
</g>
</svg>
